<svg xmlns="http://www.w3.org/2000/svg" viewBox="0 0 640 512">
  <path fill="#ff6600" d="M32 224h64V160H32v64zm256-64v64h64V160h-64zm112 0v64h64V160h-64zM0 288v160a32 32 0 0 0 32 32h64a32 32 0 0 0 32-32V288H0zm160 0v160a32 32 0 0 0 32 32h64a32 32 0 0 0 32-32V288H160zm160 0v160a32 32 0 0 0 32 32h64a32 32 0 0 0 32-32V288H320zm160 0v160a32 32 0 0 0 32 32h64a32 32 0 0 0 32-32V288H480zM224 0c-17.7 0-32 14.3-32 32s14.3 32 32 32 32-14.3 32-32-14.3-32-32-32zm192 0c-17.7 0-32 14.3-32 32s14.3 32 32 32 32-14.3 32-32-14.3-32-32-32zM0 128v64h640v-64c0-35.3-28.7-64-64-64H64c-35.3 0-64 28.7-64 64z"/>
</svg>